<?xml version="1.0" encoding="utf-8"?><svg height="53" viewBox="0 0 234 53" width="234" xmlns="http://www.w3.org/2000/svg"><g transform="translate(.5 .5)"><path d="m35.7 40.775 5.925-17.85h-4.05l-4.025 12.55h-.05l-3.975-12.55h-4.025l5.775 17.85zm14.8336634.4c1.1 0 2.1083333-.1666667 3.025-.5.9166666-.3333333 1.7166666-.8166667 2.4-1.45.6833333-.6333333 1.2333333-1.4 1.65-2.3.4166666-.9.675-1.9083333.775-3.025h-3.8c-.15 1.2-.5625 2.1666667-1.2375 2.9s-1.6125 1.1-2.8125 1.1c-.8833334 0-1.6333334-.1708333-2.25-.5125-.6166667-.3416667-1.1166667-.7958333-1.5-1.3625-.3833334-.5666667-.6625-1.2041667-.8375-1.9125s-.2625-1.4375-.2625-2.1875c0-.7833333.0875-1.5416667.2625-2.275s.4541666-1.3875.8375-1.9625c.3833333-.575.8833333-1.0333333 1.5-1.375.6166666-.3416667 1.3666666-.5125 2.25-.5125.4833333 0 .9458333.0791667 1.3875.2375.4416666.1583333.8375.3791667 1.1875.6625s.6416666.6125.875.9875c.2333333.375.3833333.7875.45 1.2375h3.8c-.1166667-1.0333333-.4-1.95-.85-2.75s-1.0208334-1.4708333-1.7125-2.0125c-.6916667-.5416667-1.475-.9541667-2.35-1.2375s-1.8041667-.425-2.7875-.425c-1.3666667 0-2.5958334.2416667-3.6875.725-1.0916667.4833333-2.0125 1.15-2.7625 2s-1.325 1.8458333-1.725 2.9875-.6 2.3791667-.6 3.7125c0 1.3.2 2.5125.6 3.6375s.975 2.1041667 1.725 2.9375 1.6708333 1.4875 2.7625 1.9625c1.0916666.475 2.3208333.7125 3.6875.7125zm17.4336633 0c2.3833334 0 4.25-.5875 5.6-1.7625s2.025-2.9708333 2.025-5.3875v-11.1h-3.925v11.1c0 1.3333333-.2666666 2.3125-.8 2.9375-.5333333.625-1.5.9375-2.9.9375-.8 0-1.4375-.1125-1.9125-.3375s-.8458333-.5166667-1.1125-.875c-.2666666-.3583333-.4416666-.7708333-.525-1.2375-.0833333-.4666667-.125-.9416667-.125-1.425v-11.1h-3.925v11.1c0 2.4333333.6625 4.2333333 1.9875 5.4s3.1958334 1.75 5.6125 1.75zm20.6423268-.4v-6.975h3.925c.9833333 0 1.6916666.2166667 2.125.65.4333333.4333333.7166666 1.1166667.85 2.05.1.7166667.175 1.4666667.225 2.25s.1833333 1.4583333.4 2.025h3.9249995c-.1833329-.25-.3208329-.5541667-.4124995-.9125-.0916667-.3583333-.1583334-.7375-.2-1.1375-.0416667-.4-.0708334-.7916667-.0875-1.175-.0166667-.3833333-.0333334-.7166667-.05-1-.0333334-.45-.0958334-.9-.1875-1.35-.0916667-.45-.2375-.8625-.4375-1.2375s-.4583334-.7-.775-.975c-.3166667-.275-.7166667-.4791667-1.2-.6125v-.05c1-.4 1.7208333-.9833333 2.1625-1.75.4416666-.7666667.6625-1.675.6625-2.725 0-.6833333-.1208334-1.3208333-.3625-1.9125-.2416667-.5916667-.5916667-1.1125-1.05-1.5625-.4583334-.45-1.0083334-.8041667-1.65-1.0625-.6416667-.2583333-1.3625-.3875-2.1625-.3875h-9.625v17.85zm4.3-9.775h-4.3v-5.025h4.3c.9 0 1.575.1958333 2.025.5875s.675 1.0208333.675 1.8875c0 .9-.225 1.55-.675 1.95s-1.125.6-2.025.6zm12.4836635-5.15v-2.925h-3.55v2.925zm0 14.925v-12.925h-3.55v12.925zm9.333663 0 4.375-12.925h-3.525l-2.725 8.825h-.05l-2.725-8.825h-3.725l4.425 12.925zm11.208664.325c1.466666 0 2.716666-.3333333 3.75-1 1.033333-.6666667 1.8-1.775 2.3-3.325h-3.125c-.116667.4-.433334.7791667-.95 1.1375-.516667.3583333-1.133334.5375-1.85.5375-1 0-1.766667-.2583333-2.3-.775-.533334-.5166667-.825-1.35-.875-2.5h9.325c.066666-1-.016667-1.9583333-.25-2.875-.233334-.9166667-.6125-1.7333333-1.1375-2.45s-1.195834-1.2875-2.0125-1.7125c-.816667-.425-1.775-.6375-2.875-.6375-.983334 0-1.879167.175-2.6875.525-.808334.35-1.504167.8291667-2.0875 1.4375-.583334.6083333-1.033334 1.3291667-1.35 2.1625-.316667.8333333-.475 1.7333333-.475 2.7 0 1 .154166 1.9166667.4625 2.75.308333.8333333.745833 1.55 1.3125 2.15.566666.6 1.258333 1.0625 2.075 1.3875.816666.325 1.733333.4875 2.75.4875zm2.725-8.175h-5.775c.016666-.25.070833-.5333333.1625-.85.091666-.3166667.25-.6166667.475-.9s.525-.5208333.9-.7125.845833-.2875 1.4125-.2875c.866666 0 1.5125.2333333 1.9375.7s.720833 1.15.8875 2.05zm8.583663 7.85v-5.825c0-.5833333.058333-1.125.175-1.625s.3125-.9375.5875-1.3125.6375-.6708333 1.0875-.8875 1-.325 1.65-.325c.216667 0 .441667.0125.675.0375s.433333.0541667.6.0875v-3.3c-.283333-.0833333-.541667-.125-.775-.125-.45 0-.883333.0666667-1.3.2s-.808333.3208333-1.175.5625-.691667.5333333-.975.875-.508333.7125-.675 1.1125h-.05v-2.4h-3.375v12.925zm18.742327.4c1.216666 0 2.2875-.1416667 3.2125-.425s1.7-.6791667 2.325-1.1875 1.095833-1.1125 1.4125-1.8125c.316666-.7.475-1.4583333.475-2.275 0-1-.2125-1.8208333-.6375-2.4625s-.929167-1.1541667-1.5125-1.5375c-.583334-.3833333-1.170834-.6625-1.7625-.8375-.591667-.175-1.054167-.2958333-1.3875-.3625-1.116667-.2833333-2.020834-.5166667-2.7125-.7-.691667-.1833333-1.233334-.3666667-1.625-.55-.391667-.1833333-.654167-.3833333-.7875-.6-.133334-.2166667-.2-.5-.2-.85 0-.3833333.083333-.7.25-.95.166666-.25.379166-.4583333.6375-.625.258333-.1666667.545833-.2833333.8625-.35.316666-.0666667.633333-.1.95-.1.483333 0 .929166.0416667 1.3375.125.408333.0833333.770833.225 1.0875.425.316666.2.570833.475.7625.825.191666.35.304166.7916667.3375 1.325h3.8c0-1.0333333-.195834-1.9125-.5875-2.6375-.391667-.725-.920834-1.3208333-1.5875-1.7875-.666667-.4666667-1.429167-.8041667-2.2875-1.0125-.858334-.2083333-1.754167-.3125-2.6875-.3125-.8 0-1.6.1083333-2.4.325s-1.516667.55-2.15 1c-.633334.45-1.145834 1.0125-1.5375 1.6875-.391667.675-.5875 1.4708333-.5875 2.3875 0 .8166667.154166 1.5125.4625 2.0875.308333.575.7125 1.0541667 1.2125 1.4375s1.066666.6958333 1.7.9375c.633333.2416667 1.283333.4458333 1.95.6125.65.1833333 1.291666.35 1.925.5.633333.15 1.2.325 1.7.525s.904166.45 1.2125.75c.308333.3.4625.6916667.4625 1.175 0 .45-.116667.8208333-.35 1.1125-.233334.2916667-.525.5208333-.875.6875s-.725.2791667-1.125.3375-.775.0875-1.125.0875c-.516667 0-1.016667-.0625-1.5-.1875-.483334-.125-.904167-.3166667-1.2625-.575-.358334-.2583333-.645834-.5958333-.8625-1.0125-.216667-.4166667-.325-.925-.325-1.525h-3.8c-.016667 1.1.183333 2.05.6 2.85.416666.8.979166 1.4583333 1.6875 1.975.708333.5166667 1.525.8958333 2.45 1.1375s1.879166.3625 2.8625.3625zm13.783663-.275c.35 0 .708333-.0083333 1.075-.025s.7-.05 1-.1v-2.75c-.166667.0333333-.341667.0583333-.525.075s-.375.025-.575.025c-.6 0-1-.1-1.2-.3s-.3-.6-.3-1.2v-6.4h2.6v-2.375h-2.6v-3.875h-3.55v3.875h-2.15v2.375h2.15v7.625c0 .65.108333 1.175.325 1.575s.5125.7083333.8875.925.808333.3625 1.3.4375 1.0125.1125 1.5625.1125zm7.883663.2c.75 0 1.483334-.1666667 2.2-.5.716667-.3333333 1.3-.875 1.75-1.625h.075v1.8h3.375v-12.925h-3.55v6.775c0 1.3166667-.216666 2.2625-.65 2.8375-.433333.575-1.133333.8625-2.1.8625-.85 0-1.441666-.2625-1.775-.7875-.333333-.525-.5-1.3208333-.5-2.3875v-7.3h-3.55v7.95c0 .8.070834 1.5291667.2125 2.1875.141667.6583333.3875 1.2166667.7375 1.675s.829167.8125 1.4375 1.0625c.608334.25 1.3875.375 2.3375.375zm14.733664 0c.85 0 1.6125-.1541667 2.2875-.4625s1.220833-.8125 1.6375-1.5125h.05v1.65h3.375v-17.85h-3.55v6.5h-.05c-.4-.6333333-.945834-1.1125-1.6375-1.4375-.691667-.325-1.420834-.4875-2.1875-.4875-.95 0-1.783334.1875-2.5.5625-.716667.375-1.3125.8708333-1.7875 1.4875s-.833334 1.3291667-1.075 2.1375c-.241667.8083333-.3625 1.6458333-.3625 2.5125 0 .9.120833 1.7666667.3625 2.6.241666.8333333.6 1.5708333 1.075 2.2125s1.079166 1.15 1.8125 1.525c.733333.375 1.583333.5625 2.55.5625zm.875-2.65c-.55 0-1.020834-.1208333-1.4125-.3625-.391667-.2416667-.716667-.5583333-.975-.95-.258334-.3916667-.445834-.8375-.5625-1.3375-.116667-.5-.175-1-.175-1.5 0-.5333333.054166-1.0458333.1625-1.5375.108333-.4916667.283333-.9291667.525-1.3125.241666-.3833333.5625-.6916667.9625-.925s.891666-.35 1.475-.35c.583333 0 1.066666.1166667 1.45.35.383333.2333333.695833.5375.9375.9125.241666.375.4125.8083333.5125 1.3s.15 1.0041667.15 1.5375-.05 1.05-.15 1.55-.266667.9458333-.5 1.3375c-.233334.3916667-.545834.7041667-.9375.9375-.391667.2333333-.879167.35-1.4625.35zm12.183663-12.6v-2.925h-3.55v2.925zm0 14.925v-12.925h-3.55v12.925zm8.158663.325c1.466667 0 2.716667-.3333333 3.75-1 1.033334-.6666667 1.8-1.775 2.3-3.325h-3.125c-.116666.4-.433333.7791667-.95 1.1375-.516666.3583333-1.133333.5375-1.85.5375-1 0-1.766666-.2583333-2.3-.775-.533333-.5166667-.825-1.35-.875-2.5h9.325c.066667-1-.016666-1.9583333-.25-2.875-.233333-.9166667-.6125-1.7333333-1.1375-2.45s-1.195833-1.2875-2.0125-1.7125c-.816666-.425-1.775-.6375-2.875-.6375-.983333 0-1.879166.175-2.6875.525-.808333.35-1.504166.8291667-2.0875 1.4375-.583333.6083333-1.033333 1.3291667-1.35 2.1625-.316666.8333333-.475 1.7333333-.475 2.7 0 1 .154167 1.9166667.4625 2.75.308334.8333333.745834 1.55 1.3125 2.15.566667.6 1.258334 1.0625 2.075 1.3875.816667.325 1.733334.4875 2.75.4875zm2.725-8.175h-5.775c.016667-.25.070834-.5333333.1625-.85.091667-.3166667.25-.6166667.475-.9s.525-.5208333.9-.7125.845834-.2875 1.4125-.2875c.866667 0 1.5125.2333333 1.9375.7s.720834 1.15.8875 2.05zm10.483664 8.175c.733333 0 1.454167-.0708333 2.1625-.2125s1.3375-.3875 1.8875-.7375.995833-.8125 1.3375-1.3875.5125-1.2875.5125-2.1375c0-.6-.116667-1.1041667-.35-1.5125s-.541667-.75-.925-1.025-.820833-.4958333-1.3125-.6625-.995833-.3083333-1.5125-.425c-.5-.1166667-.991667-.225-1.475-.325s-.9125-.2125-1.2875-.3375-.679167-.2875-.9125-.4875-.35-.4583333-.35-.775c0-.2666667.066667-.4791667.2-.6375s.295833-.2791667.4875-.3625.404167-.1375.6375-.1625.45-.0375.65-.0375c.633333 0 1.183333.1208333 1.65.3625s.725.7041667.775 1.3875h3.375c-.066667-.8-.270833-1.4625-.6125-1.9875s-.770833-.9458333-1.2875-1.2625-1.104167-.5416667-1.7625-.675-1.3375-.2-2.0375-.2-1.383333.0625-2.05.1875-1.266667.3416667-1.8.65-.9625.7291667-1.2875 1.2625-.4875 1.2166667-.4875 2.05c0 .5666667.116667 1.0458333.35 1.4375s.541667.7166667.925.975.820833.4666667 1.3125.625.995833.2958333 1.5125.4125c1.266667.2666667 2.254167.5333333 2.9625.8s1.0625.6666667 1.0625 1.2c0 .3166667-.075.5791667-.225.7875s-.3375.375-.5625.5-.475.2166667-.75.275-.5375.0875-.7875.0875c-.35 0-.6875-.0416667-1.0125-.125s-.6125-.2125-.8625-.3875-.454167-.4-.6125-.675-.2375-.6041667-.2375-.9875h-3.375c.033333.8666667.229167 1.5875.5875 2.1625s.816667 1.0375 1.375 1.3875 1.195833.6 1.9125.75 1.45.225 2.2.225z"/><path d="m25 0v5h-2.5c-9.5551538 0-17.32169513 7.6579601-17.49697355 17.1712297l-.00302645.3287703v15.1352539c0 2.1132813-1.07568359 3.3647461-2.51757812 3.3647461-.96126303 0-1.78873698 0-2.48242188 0v-18.5c0-12.3021428 9.87312863-22.29829286 22.1279214-22.49698564l.3720786-.00301436z"/><path d="m25 11v5h-2.5c-3.5914047 0-6.5172814 2.8494638-6.640161 6.4109224l-.0040179.2332565v16c0 7.2723259-5.8123514 13.1871045-13.04499394 13.3522753l-.31082716.0035458h-2.5v-5h2.5c4.52933346 0 8.2169649-3.6037549 8.3519905-8.1003609l.0038306-.2554602v-16c0-6.3319655 5.0541019-11.4834822 11.3482472-11.6404917l.2959317-.0036872z"/></g></svg>