<?xml version="1.0" encoding="utf-8"?><svg height="30" viewBox="0 0 30 30" width="30" xmlns="http://www.w3.org/2000/svg"><g transform="translate(.5 .5)"><path d="m12 0c-6.627417 0-12 5.372583-12 12s5.372583 12 12 12 12-5.372583 12-12-5.372583-12-12-12zm0 3c4.9705627 0 9 4.02943725 9 9 0 4.9705627-4.0294373 9-9 9-4.97056275 0-9-4.0294373-9-9 0-4.97056275 4.02943725-9 9-9z"/><path d="m18.6893398 18.6893398c.5491748-.5491748 1.4182372-.5834982 2.007398-.1029702l.1139224.1029702 8.25 8.25c.5857864.5857865.5857864 1.5355339 0 2.1213204-.5491748.5491748-1.4182372.5834982-2.007398.1029702l-.1139224-.1029702-8.25-8.25c-.5857864-.5857865-.5857864-1.5355339 0-2.1213204z"/></g></svg>